<svg width="101" height="100" fill="none" xmlns="http://www.w3.org/2000/svg"><circle cx="51" cy="50" r="46.5" stroke="#fff" stroke-width="7"/><path d="M46.865 45h-3.522c-.209-1.013-.573-1.903-1.094-2.67a7.283 7.283 0 00-1.875-1.932 7.96 7.96 0 00-2.429-1.194 9.703 9.703 0 00-2.784-.397c-1.761 0-3.357.445-4.787 1.335-1.42.89-2.552 2.202-3.395 3.935-.833 1.733-1.25 3.859-1.25 6.378s.417 4.644 1.25 6.377c.843 1.733 1.974 3.045 3.395 3.935 1.43.89 3.026 1.335 4.787 1.335a9.7 9.7 0 002.784-.397c.89-.266 1.7-.659 2.429-1.18a7.482 7.482 0 001.875-1.945c.52-.777.885-1.667 1.094-2.67h3.522c-.265 1.486-.748 2.816-1.449 3.99a10.908 10.908 0 01-2.613 2.998 11.446 11.446 0 01-3.509 1.86c-1.287.427-2.665.64-4.133.64-2.481 0-4.688-.606-6.62-1.818-1.931-1.213-3.451-2.936-4.56-5.17-1.107-2.236-1.661-4.887-1.661-7.955 0-3.069.554-5.72 1.662-7.955 1.108-2.235 2.628-3.958 4.56-5.17 1.931-1.213 4.138-1.819 6.619-1.819 1.468 0 2.846.213 4.133.64a11.28 11.28 0 013.509 1.875 10.714 10.714 0 012.614 2.982c.7 1.165 1.183 2.496 1.448 3.992zm10.886-9.09l8.636 24.488h.341l8.637-24.489h3.693L68.376 65H64.74L54.058 35.91h3.693z" fill="#fff"/><path d="M46.865 45v1h1.193l-.208-1.175-.985.175zm-3.522 0l-.98.201.164.799h.816v-1zm-1.094-2.67l-.832.554.005.007.827-.561zm-1.875-1.932l-.588.808.006.005.006.004.576-.817zm-2.429-1.194l-.285.959.285-.958zm-7.571.938l-.528-.849-.003.002.53.847zm-3.395 3.935l-.9-.438-.001.004.901.434zm0 12.755l-.901.434.002.004.899-.438zm3.395 3.935l-.531.847.003.002.528-.849zm7.571.938l-.285-.959.285.959zm2.429-1.18l.581.814.002-.001-.583-.812zm1.875-1.945l-.83-.557-.002.002.832.555zm1.094-2.67v-1h-.814l-.165.796.979.203zm3.522 0l.985.175.21-1.176h-1.195v1zm-1.449 3.99l-.858-.512.858.513zm-2.613 2.998l.616.787.004-.003-.62-.784zm-3.509 1.86l-.312-.95-.002.001.314.95zM28.542 63.58l-.532.847.531-.848zm-4.56-5.17l.896-.445-.896.444zm0-15.91l-.896-.444.896.444zm15.312-6.35l-.314.95h.002l.312-.95zm3.509 1.876l-.62.784.004.003.616-.787zm2.614 2.982l-.86.513.003.003.856-.516zM46.864 44h-3.522v2h3.522v-2zm-2.543.799c-.232-1.128-.643-2.143-1.246-3.031l-1.654 1.123c.438.647.756 1.411.941 2.31l1.96-.402zm-1.241-3.024a8.284 8.284 0 00-2.13-2.194l-1.153 1.634a6.283 6.283 0 011.619 1.67l1.664-1.11zm-2.119-2.186a8.957 8.957 0 00-2.732-1.343l-.57 1.917a6.961 6.961 0 012.126 1.044l1.176-1.618zm-2.732-1.343a10.69 10.69 0 00-3.07-.44v2c.874 0 1.706.12 2.5.357l.57-1.917zm-3.07-.44c-1.938 0-3.719.494-5.314 1.487l1.056 1.698c1.264-.787 2.675-1.184 4.259-1.184v-2zm-5.317 1.489c-1.602 1.003-2.851 2.469-3.763 4.344l1.798.875c.774-1.59 1.788-2.748 3.027-3.525l-1.062-1.694zm-3.765 4.348c-.915 1.904-1.349 4.187-1.349 6.812h2c0-2.414.4-4.382 1.151-5.945l-1.802-.867zm-1.349 6.812c0 2.624.434 4.907 1.349 6.81l1.802-.866c-.751-1.563-1.151-3.53-1.151-5.944h-2zm1.35 6.815c.913 1.875 2.162 3.34 3.764 4.344l1.062-1.694c-1.24-.777-2.253-1.935-3.027-3.525l-1.798.875zm3.767 4.346c1.595.993 3.376 1.486 5.315 1.486v-2c-1.584 0-2.995-.397-4.259-1.184l-1.056 1.698zm5.315 1.486c1.059 0 2.083-.145 3.07-.44l-.572-1.916a8.703 8.703 0 01-2.498.356v2zm3.07-.44a9.146 9.146 0 002.724-1.323l-1.162-1.627c-.636.454-1.345.8-2.133 1.034l.57 1.917zm2.726-1.324a8.485 8.485 0 002.124-2.204l-1.664-1.11a6.484 6.484 0 01-1.626 1.69l1.166 1.624zm2.122-2.201c.6-.894 1.01-1.907 1.243-3.025l-1.958-.406c-.185.89-.503 1.657-.946 2.316l1.661 1.115zm.264-2.228h3.522v-2h-3.522v2zm2.538-1.175c-.246 1.38-.69 2.594-1.323 3.654l1.717 1.025c.77-1.288 1.29-2.735 1.575-4.328l-1.97-.352zm-1.323 3.654a9.91 9.91 0 01-2.375 2.725l1.24 1.57a11.91 11.91 0 002.852-3.27l-1.717-1.025zm-2.371 2.722a10.449 10.449 0 01-3.205 1.699l.624 1.9a12.445 12.445 0 003.813-2.024l-1.232-1.575zm-3.207 1.7c-1.178.39-2.45.588-3.82.588v2c1.567 0 3.051-.228 4.449-.69l-.629-1.899zm-3.82.588c-2.31 0-4.328-.562-6.087-1.665l-1.063 1.694c2.105 1.32 4.499 1.97 7.15 1.97v-2zm-6.087-1.665c-1.76-1.105-3.161-2.683-4.195-4.768l-1.792.888c1.182 2.384 2.821 4.254 4.924 5.574l1.063-1.695zm-4.195-4.768c-1.026-2.069-1.558-4.562-1.558-7.51h-2c0 3.187.576 5.997 1.766 8.398l1.792-.888zm-1.558-7.51c0-2.95.532-5.442 1.558-7.51l-1.792-.89c-1.19 2.402-1.766 5.212-1.766 8.4h2zm1.558-7.51c1.034-2.086 2.434-3.663 4.195-4.768l-1.063-1.694c-2.103 1.319-3.742 3.189-4.924 5.573l1.792.888zm4.195-4.768c1.759-1.104 3.778-1.666 6.088-1.666v-2c-2.652 0-5.046.65-7.15 1.971l1.062 1.695zm6.088-1.666c1.37 0 2.64.199 3.82.589l.627-1.899c-1.397-.462-2.881-.69-4.447-.69v2zm3.821.59c1.19.39 2.254.96 3.2 1.709l1.241-1.569a12.283 12.283 0 00-3.817-2.04l-.624 1.9zm3.205 1.712a9.715 9.715 0 012.37 2.708l1.718-1.025a11.712 11.712 0 00-2.856-3.258l-1.232 1.575zm2.373 2.711c.63 1.048 1.075 2.26 1.32 3.65l1.97-.349c-.284-1.602-.806-3.05-1.577-4.332l-1.713 1.031zm13.191-5.615l.943-.332-.235-.668h-.708v1zm8.636 24.489l-.943.332.236.668h.707v-1zm.341 0v1h.708l.235-.668-.943-.332zm8.637-24.489v-1h-.708l-.235.668.943.332zm3.693 0l.939.345.493-1.345h-1.432v1zM68.376 65v1h.698l.24-.655-.938-.345zm-3.636 0l-.939.345.24.655h.699v-1zM54.058 35.91v-1h-1.433l.494 1.344.939-.345zm2.75.332l8.636 24.488 1.886-.665-8.636-24.488-1.886.665zm9.58 25.156h.34v-2h-.34v2zm1.283-.668l8.637-24.488-1.886-.665-8.637 24.488 1.886.665zm7.694-23.82h3.693v-2h-3.693v2zm2.754-1.346L67.437 64.655l1.878.69 10.682-29.091-1.878-.69zM68.376 64H64.74v2h3.636v-2zm-2.698.655l-10.681-29.09-1.878.689 10.682 29.09 1.877-.689zM54.058 36.91h3.693v-2h-3.693v2z" fill="#fff"/></svg>