<svg width="101" height="100" viewBox="0 0 101 100" fill="none" xmlns="http://www.w3.org/2000/svg">
<circle cx="51" cy="50" r="46.5" stroke="#fff" stroke-width="7"/>
<path d="M46.8654 45H43.3427C43.1344 43.9867 42.7698 43.0966 42.2489 42.3295C41.7376 41.5625 41.1126 40.9186 40.3739 40.3977C39.6448 39.8674 38.8351 39.4697 37.945 39.2045C37.0548 38.9394 36.1268 38.8068 35.1609 38.8068C33.3995 38.8068 31.8039 39.2519 30.3739 40.142C28.9535 41.0322 27.8219 42.3438 26.979 44.0767C26.1457 45.8097 25.729 47.9356 25.729 50.4545C25.729 52.9735 26.1457 55.0994 26.979 56.8324C27.8219 58.5653 28.9535 59.8769 30.3739 60.767C31.8039 61.6572 33.3995 62.1023 35.1609 62.1023C36.1268 62.1023 37.0548 61.9697 37.945 61.7045C38.8351 61.4394 39.6448 61.0464 40.3739 60.5256C41.1126 59.9953 41.7376 59.3466 42.2489 58.5795C42.7698 57.803 43.1344 56.9129 43.3427 55.9091H46.8654C46.6003 57.3958 46.1173 58.7263 45.4165 59.9006C44.7158 61.0748 43.8446 62.0739 42.8029 62.8977C41.7612 63.7121 40.5917 64.3324 39.2944 64.7585C38.0065 65.1847 36.6287 65.3977 35.1609 65.3977C32.6798 65.3977 30.4734 64.7917 28.5415 63.5795C26.6097 62.3674 25.0898 60.6439 23.9819 58.4091C22.8739 56.1742 22.32 53.5227 22.32 50.4545C22.32 47.3864 22.8739 44.7348 23.9819 42.5C25.0898 40.2652 26.6097 38.5417 28.5415 37.3295C30.4734 36.1174 32.6798 35.5114 35.1609 35.5114C36.6287 35.5114 38.0065 35.7244 39.2944 36.1506C40.5917 36.5767 41.7612 37.2017 42.8029 38.0256C43.8446 38.84 44.7158 39.8343 45.4165 41.0085C46.1173 42.1733 46.6003 43.5038 46.8654 45ZM57.7511 35.9091L66.3874 60.3977H66.7283L75.3647 35.9091H79.0579L68.3761 65H64.7397L54.0579 35.9091H57.7511Z" fill="#fff"/>
<path d="M46.8654 45V46H48.0582L47.8501 44.8255L46.8654 45ZM43.3427 45L42.3632 45.2014L42.5274 46H43.3427V45ZM42.2489 42.3295L41.4169 42.8843L41.4216 42.8913L42.2489 42.3295ZM40.3739 40.3977L39.7858 41.2065L39.7917 41.2108L39.7977 41.215L40.3739 40.3977ZM37.945 39.2045L37.6595 40.1629L37.6595 40.1629L37.945 39.2045ZM30.3739 40.142L29.8455 39.2931L29.8429 39.2947L30.3739 40.142ZM26.979 44.0767L26.0798 43.6393L26.0778 43.6433L26.979 44.0767ZM26.979 56.8324L26.0778 57.2658L26.0798 57.2697L26.979 56.8324ZM30.3739 60.767L29.8429 61.6144L29.8455 61.616L30.3739 60.767ZM37.945 61.7045L37.6595 60.7462L37.6595 60.7462L37.945 61.7045ZM40.3739 60.5256L40.9552 61.3393L40.9571 61.3379L40.3739 60.5256ZM42.2489 58.5795L41.4184 58.0225L41.4169 58.0248L42.2489 58.5795ZM43.3427 55.9091V54.9091H42.5289L42.3636 55.7059L43.3427 55.9091ZM46.8654 55.9091L47.8499 56.0847L48.0595 54.9091H46.8654V55.9091ZM45.4165 59.9006L44.5578 59.3881L44.5578 59.3881L45.4165 59.9006ZM42.8029 62.8977L43.4188 63.6855L43.4233 63.6821L42.8029 62.8977ZM39.2944 64.7585L38.9823 63.8085L38.9803 63.8091L39.2944 64.7585ZM28.5415 63.5795L28.0101 64.4266L28.0101 64.4266L28.5415 63.5795ZM23.9819 58.4091L24.8778 57.9649L24.8778 57.9649L23.9819 58.4091ZM23.9819 42.5L23.0859 42.0558L23.9819 42.5ZM39.2944 36.1506L38.9803 37.0999L38.9823 37.1006L39.2944 36.1506ZM42.8029 38.0256L42.1826 38.8099L42.187 38.8134L42.8029 38.0256ZM45.4165 41.0085L44.5578 41.521L44.5597 41.524L45.4165 41.0085ZM46.8654 44H43.3427V46H46.8654V44ZM44.3222 44.7986C44.0904 43.6713 43.6791 42.6557 43.0762 41.7678L41.4216 42.8913C41.8604 43.5375 42.1783 44.3022 42.3632 45.2014L44.3222 44.7986ZM43.081 41.7748C42.5027 40.9074 41.7916 40.1738 40.9502 39.5805L39.7977 41.215C40.4336 41.6634 40.9725 42.2176 41.4169 42.8842L43.081 41.7748ZM40.9621 39.589C40.1385 38.99 39.2259 38.5427 38.2304 38.2462L37.6595 40.1629C38.4443 40.3967 39.151 40.7449 39.7858 41.2065L40.9621 39.589ZM38.2304 38.2462C37.244 37.9523 36.2196 37.8068 35.1609 37.8068V39.8068C36.034 39.8068 36.8656 39.9265 37.6595 40.1629L38.2304 38.2462ZM35.1609 37.8068C33.2216 37.8068 31.4414 38.2996 29.8455 39.2931L30.9024 40.991C32.1663 40.2042 33.5774 39.8068 35.1609 39.8068V37.8068ZM29.8429 39.2947C28.2411 40.2985 26.992 41.7637 26.0798 43.6393L27.8783 44.5141C28.6517 42.9238 29.6659 41.7659 30.9049 40.9894L29.8429 39.2947ZM26.0778 43.6433C25.1626 45.5467 24.729 47.8302 24.729 50.4545H26.729C26.729 48.041 27.1289 46.0727 27.8803 44.5101L26.0778 43.6433ZM24.729 50.4545C24.729 53.0789 25.1626 55.3624 26.0778 57.2658L27.8803 56.399C27.1289 54.8364 26.729 52.8681 26.729 50.4545H24.729ZM26.0798 57.2697C26.992 59.1454 28.2411 60.6106 29.8429 61.6144L30.9049 59.9197C29.6659 59.1432 28.6517 57.9853 27.8783 56.395L26.0798 57.2697ZM29.8455 61.616C31.4414 62.6095 33.2216 63.1023 35.1609 63.1023V61.1023C33.5774 61.1023 32.1663 60.7049 30.9024 59.9181L29.8455 61.616ZM35.1609 63.1023C36.2196 63.1023 37.244 62.9568 38.2304 62.6629L37.6595 60.7462C36.8656 60.9826 36.034 61.1023 35.1609 61.1023V63.1023ZM38.2304 62.6629C39.2226 62.3674 40.1328 61.9267 40.9552 61.3393L39.7927 59.7118C39.1567 60.1661 38.4476 60.5114 37.6595 60.7462L38.2304 62.6629ZM40.9571 61.3379C41.7949 60.7364 42.5038 60 43.081 59.1342L41.4169 58.0248C40.9713 58.6932 40.4302 59.2541 39.7907 59.7132L40.9571 61.3379ZM43.0794 59.1366C43.6788 58.2429 44.0898 57.2303 44.3218 56.1123L42.3636 55.7059C42.1789 56.5955 41.8607 57.3631 41.4184 58.0225L43.0794 59.1366ZM43.3427 56.9091H46.8654V54.9091H43.3427V56.9091ZM45.8809 55.7335C45.6348 57.1137 45.1905 58.3279 44.5578 59.3881L46.2753 60.413C47.0441 59.1247 47.5657 57.678 47.8499 56.0847L45.8809 55.7335ZM44.5578 59.3881C43.9175 60.4611 43.1261 61.3672 42.1826 62.1134L43.4233 63.6821C44.5631 62.7806 45.5141 61.6885 46.2753 60.413L44.5578 59.3881ZM42.187 62.1099C41.2394 62.8507 40.1734 63.4172 38.9823 63.8085L39.6065 65.7086C41.0101 65.2475 42.2831 64.5735 43.4188 63.6855L42.187 62.1099ZM38.9803 63.8091C37.8017 64.1991 36.5307 64.3977 35.1609 64.3977V66.3977C36.7267 66.3977 38.2113 66.1702 39.6085 65.7079L38.9803 63.8091ZM35.1609 64.3977C32.8507 64.3977 30.8317 63.8359 29.073 62.7325L28.0101 64.4266C30.1151 65.7474 32.5089 66.3977 35.1609 66.3977V64.3977ZM29.073 62.7325C27.3121 61.6275 25.9118 60.0504 24.8778 57.9649L23.0859 58.8533C24.2679 61.2374 25.9074 63.1073 28.0101 64.4266L29.073 62.7325ZM24.8778 57.9649C23.8523 55.8962 23.32 53.4034 23.32 50.4545H21.32C21.32 53.642 21.8956 56.4522 23.0859 58.8533L24.8778 57.9649ZM23.32 50.4545C23.32 47.5057 23.8523 45.0128 24.8778 42.9442L23.0859 42.0558C21.8956 44.4568 21.32 47.2671 21.32 50.4545H23.32ZM24.8778 42.9442C25.9118 40.8586 27.3121 39.2815 29.073 38.1766L28.0101 36.4825C25.9074 37.8018 24.2679 39.6717 23.0859 42.0558L24.8778 42.9442ZM29.073 38.1766C30.8317 37.0732 32.8507 36.5114 35.1609 36.5114V34.5114C32.5089 34.5114 30.1151 35.1617 28.0101 36.4825L29.073 38.1766ZM35.1609 36.5114C36.5307 36.5114 37.8017 36.71 38.9803 37.0999L39.6085 35.2012C38.2113 34.7389 36.7267 34.5114 35.1609 34.5114V36.5114ZM38.9823 37.1006C40.1712 37.4911 41.2357 38.061 42.1826 38.8099L43.4233 37.2412C42.2868 36.3424 41.0123 35.6623 39.6065 35.2005L38.9823 37.1006ZM42.187 38.8134C43.1281 39.5492 43.9181 40.449 44.5578 41.521L46.2753 40.4961C45.5135 39.2195 44.5611 38.1308 43.4188 37.2378L42.187 38.8134ZM44.5597 41.524C45.1903 42.5723 45.6345 43.7847 45.8808 45.1745L47.8501 44.8255C47.5661 43.2229 47.0443 41.7743 46.2734 40.493L44.5597 41.524ZM57.7511 35.9091L58.6941 35.5765L58.4588 34.9091H57.7511V35.9091ZM66.3874 60.3977L65.4444 60.7303L65.6797 61.3977H66.3874V60.3977ZM66.7283 60.3977V61.3977H67.436L67.6714 60.7303L66.7283 60.3977ZM75.3647 35.9091V34.9091H74.657L74.4216 35.5765L75.3647 35.9091ZM79.0579 35.9091L79.9966 36.2538L80.4904 34.9091H79.0579V35.9091ZM68.3761 65V66H69.0742L69.3148 65.3447L68.3761 65ZM64.7397 65L63.801 65.3447L64.0416 66H64.7397V65ZM54.0579 35.9091V34.9091H52.6254L53.1192 36.2538L54.0579 35.9091ZM56.808 36.2417L65.4444 60.7303L67.3305 60.0651L58.6941 35.5765L56.808 36.2417ZM66.3874 61.3977H66.7283V59.3977H66.3874V61.3977ZM67.6714 60.7303L76.3078 36.2417L74.4216 35.5765L65.7853 60.0651L67.6714 60.7303ZM75.3647 36.9091H79.0579V34.9091H75.3647V36.9091ZM78.1192 35.5644L67.4373 64.6553L69.3148 65.3447L79.9966 36.2538L78.1192 35.5644ZM68.3761 64H64.7397V66H68.3761V64ZM65.6784 64.6553L54.9966 35.5644L53.1192 36.2538L63.801 65.3447L65.6784 64.6553ZM54.0579 36.9091H57.7511V34.9091H54.0579V36.9091Z" fill="#fff"/>
</svg>
